<svg width="20" height="20" viewBox="0 0 20 20" fill="none" xmlns="http://www.w3.org/2000/svg">
<path fill-rule="evenodd" clip-rule="evenodd" d="M6.46424 6.46447C6.65178 6.27693 6.90614 6.17157 7.17135 6.17157C7.43657 6.17157 7.69092 6.27693 7.87846 6.46447L9.99978 8.58579L12.1211 6.46447C12.3086 6.27693 12.563 6.17157 12.8282 6.17157C13.0934 6.17157 13.3478 6.27693 13.5353 6.46447C13.7228 6.652 13.8282 6.90636 13.8282 7.17157C13.8282 7.43679 13.7228 7.69114 13.5353 7.87868L11.414 10L13.5353 12.1213C13.7228 12.3089 13.8282 12.5632 13.8282 12.8284C13.8282 13.0936 13.7228 13.348 13.5353 13.5355C13.3478 13.7231 13.0934 13.8284 12.8282 13.8284C12.563 13.8284 12.3086 13.7231 12.1211 13.5355L9.99978 11.4142L7.87846 13.5355C7.69092 13.7231 7.43657 13.8284 7.17135 13.8284C6.90614 13.8284 6.65178 13.7231 6.46424 13.5355C6.27671 13.348 6.17135 13.0936 6.17135 12.8284C6.17135 12.5632 6.27671 12.3089 6.46424 12.1213L8.58557 10L6.46424 7.87868C6.27671 7.69114 6.17135 7.43679 6.17135 7.17157C6.17135 6.90636 6.27671 6.652 6.46424 6.46447Z" fill="#505050"/>
</svg>
